<svg width="64" height="64" viewBox="0 0 64 64" fill="none" xmlns="http://www.w3.org/2000/svg">
<g clip-path="url(#clip0_22_181)">
<path d="M32 0C14.3261 0 0 14.3261 0 32C0 49.6739 14.3261 64 32 64C49.6739 64 64 49.6739 64 32C64 14.3261 49.6739 0 32 0ZM32 59C17.0879 59 5 46.9121 5 32C5 17.0879 17.0879 5 32 5C46.9121 5 59 17.0879 59 32C59 46.9121 46.9121 59 32 59Z" fill="#CCBBB6"/>
<path d="M47.5957 45.6465L18.3555 16.4042C17.8165 15.8652 16.9434 15.8652 16.4044 16.4042C15.8654 16.9432 15.8654 17.8125 16.4044 18.3535L45.6466 47.5957C46.1856 48.1348 47.0587 48.1348 47.5959 47.5957C48.1347 47.0586 48.1347 46.1855 47.5957 45.6465Z" fill="#CCBBB6"/>
<path d="M44 40.6367V20.7636C44 18.2949 43.5215 17.289 41.3926 18.5371L29.2344 25.8711L44 40.6367Z" fill="#CCBBB6"/>
<path d="M22.6367 26H21C20.4473 26 20 26.4473 20 27V37C20 37.5527 20.4473 38 21 38H29.4375L41.3926 45.4649C41.879 45.75 42.2715 45.9024 42.5996 45.9629L22.6367 26Z" fill="#CCBBB6"/>
<path d="M47.5957 45.6465L18.3555 16.4042C17.8165 15.8652 16.9434 15.8652 16.4044 16.4042C15.8654 16.9432 15.8654 17.8125 16.4044 18.3535L45.6466 47.5957C46.1856 48.1348 47.0587 48.1348 47.5959 47.5957C48.1347 47.0586 48.1347 46.1855 47.5957 45.6465Z" fill="#CCBBB6"/>
</g>
<defs>
<clipPath id="clip0_22_181">
<rect width="64" height="64" fill="white"/>
</clipPath>
</defs>
</svg>
